<svg width="749" height="114" viewBox="0 0 749 114" fill="none" xmlns="http://www.w3.org/2000/svg">
<path opacity="0.5" d="M472.276 72.88C472.276 33.343 461.862 1.29221 449.015 1.29221C436.169 1.29221 425.754 33.343 425.754 72.88C425.754 95.0376 430.163 113 435.601 113C441.039 113 445.448 95.0376 445.448 72.88C445.448 33.343 435.034 1.29221 422.187 1.29221C409.34 1.29221 398.926 33.343 398.926 72.88C398.926 95.0376 403.334 113 408.773 113C414.211 113 418.619 95.0376 418.619 72.88C418.619 33.343 408.141 1.29221 395.216 1.29221C382.29 1.29221 371.812 33.343 371.812 72.88C371.812 95.0376 376.22 113 381.659 113C387.097 113 391.505 95.0376 391.505 72.88C391.505 33.343 381.091 1.29221 368.244 1.29221C355.398 1.29221 344.984 33.343 344.984 72.88C344.984 95.0376 349.392 113 354.83 113C360.268 113 364.677 95.0376 364.677 72.88C364.677 33.343 354.262 1.29221 341.415 1.29221C328.569 1.29221 318.155 33.343 318.155 72.88C318.155 95.0376 322.564 113 328.001 113C333.439 113 337.848 95.0376 337.848 72.88C337.848 33.343 327.433 1.29221 314.587 1.29221C301.741 1.29221 291.326 33.343 291.326 72.88C291.326 95.0376 295.735 113 301.173 113C306.611 113 311.019 95.0376 311.019 72.88C311.019 33.343 300.541 1.2922 287.616 1.2922C274.691 1.2922 264.212 33.343 264.212 72.88M607 72.88C607 33.343 596.586 1.29221 583.739 1.29221C570.892 1.29221 560.478 33.343 560.478 72.88C560.478 95.0376 564.887 113 570.325 113C575.763 113 580.171 95.0376 580.171 72.88C580.171 33.343 569.757 1.29221 556.911 1.29221C544.064 1.29221 533.649 33.343 533.649 72.88C533.649 95.0376 538.058 113 543.496 113C548.934 113 553.343 95.0376 553.343 72.88C553.343 33.343 542.865 1.29221 529.939 1.29221C517.014 1.29221 506.535 33.343 506.535 72.88C506.535 95.0376 510.944 113 516.382 113C521.821 113 526.228 95.0376 526.228 72.88C526.228 33.343 515.815 1.29221 502.968 1.29221C490.121 1.29221 479.707 33.343 479.707 72.88C479.707 95.0376 484.115 113 489.553 113C494.992 113 499.4 95.0376 499.4 72.88C499.4 33.343 488.986 1.29221 476.139 1.29221C463.292 1.29221 452.878 33.343 452.878 72.88C452.878 95.0376 457.287 113 462.725 113C468.163 113 472.572 95.0376 472.572 72.88C472.572 33.343 462.157 1.29221 449.311 1.29221C436.464 1.29221 426.05 33.343 426.05 72.88C426.05 95.0376 430.458 113 435.897 113C441.334 113 445.743 95.0376 445.743 72.88C445.743 33.343 435.265 1.2922 422.34 1.2922C409.414 1.2922 398.936 33.343 398.936 72.88M176.064 72.5878C176.064 33.0508 165.65 1.00001 152.803 1.00001C139.957 1.00001 129.542 33.0508 129.542 72.5878C129.542 94.7454 133.951 112.708 139.389 112.708C144.827 112.708 149.236 94.7454 149.236 72.5878C149.236 33.0508 138.821 1.00001 125.975 1.00001C113.128 1.00001 102.713 33.0507 102.713 72.5878C102.713 94.7454 107.122 112.708 112.56 112.708C117.999 112.708 122.407 94.7454 122.407 72.5878C122.407 33.0508 111.929 1.00001 99.0035 1C86.0781 1 75.5995 33.0507 75.5995 72.5878C75.5995 94.7454 80.0082 112.708 85.4465 112.708C90.8849 112.708 95.2927 94.7454 95.2927 72.5878C95.2927 33.0507 84.8789 1 72.0321 1C59.1854 1 48.7715 33.0507 48.7715 72.5878C48.7715 94.7454 53.1794 112.708 58.6177 112.708C64.056 112.708 68.4647 94.7454 68.4647 72.5878C68.4647 33.0507 58.05 1 45.2033 1C32.3566 1 21.9427 33.0507 21.9427 72.5878C21.9427 94.7454 26.3514 112.708 31.7889 112.708C37.2272 112.708 41.6359 94.7454 41.6359 72.5878C41.6359 33.0507 31.2212 1 18.3753 1C5.52856 1 -4.88611 33.0507 -4.88611 72.5878C-4.88611 94.7454 -0.477449 112.708 4.96089 112.708C10.3984 112.708 14.8071 94.7454 14.8071 72.5878C14.8071 33.0507 4.32933 1 -8.59605 1C-21.5214 0.999999 -32 33.0507 -32 72.5878M310.788 72.5878C310.788 33.0508 300.374 1.00001 287.527 1.00001C274.68 1.00001 264.266 33.0508 264.266 72.5878C264.266 94.7454 268.674 112.708 274.113 112.708C279.551 112.708 283.959 94.7454 283.959 72.5878C283.959 33.0508 273.545 1.00001 260.698 1.00001C247.852 1.00001 237.437 33.0507 237.437 72.5878C237.437 94.7454 241.846 112.708 247.284 112.708C252.722 112.708 257.131 94.7454 257.131 72.5878C257.131 33.0508 246.652 1.00001 233.727 1C220.802 1 210.323 33.0507 210.323 72.5878C210.323 94.7454 214.732 112.708 220.17 112.708C225.608 112.708 230.016 94.7454 230.016 72.5878C230.016 33.0507 219.602 1 206.756 1C193.909 1 183.495 33.0507 183.495 72.5878C183.495 94.7454 187.903 112.708 193.341 112.708C198.78 112.708 203.188 94.7454 203.188 72.5878C203.188 33.0507 192.774 1 179.927 1C167.08 1 156.666 33.0507 156.666 72.5878C156.666 94.7454 161.075 112.708 166.512 112.708C171.951 112.708 176.359 94.7454 176.359 72.5878C176.359 33.0507 165.945 1 153.099 1C140.252 1 129.837 33.0507 129.837 72.5878C129.837 94.7454 134.246 112.708 139.684 112.708C145.122 112.708 149.531 94.7454 149.531 72.5878C149.531 33.0507 139.053 1 126.128 1C113.202 0.999999 102.724 33.0507 102.724 72.5878" stroke="#A1A6B4" stroke-linecap="round"/>
<path opacity="0.5" d="M693 1L693.011 56.9449L714.43 5.26273L693.031 56.9535L732.598 17.402L693.047 56.9688L744.737 35.5696L693.055 56.9892L749 57L693.055 57.0108L744.737 78.4304L693.047 57.0312L732.598 96.5979L693.031 57.0465L714.43 108.737L693.011 57.0551L693 113L692.989 57.0551L671.57 108.737L692.969 57.0465L653.402 96.5979L692.953 57.0312L641.263 78.4304L692.945 57.0108L637 57L692.945 56.9892L641.263 35.5696L692.953 56.9688L653.402 17.402L692.969 56.9535L671.57 5.26273L692.989 56.9449L693 1Z" stroke="#A1A6B4"/>
</svg>
